<svg viewBox="0 0 14 14" xmlns="http://www.w3.org/2000/svg"><g stroke="none" stroke-width="1" fill="none" fill-rule="evenodd"><g transform="translate(-701.000000, -314.000000)"><g transform="translate(708.000000, 321.000000) scale(-1, 1) translate(-708.000000, -321.000000) translate(701.000000, 314.000000)"><path d="M12,4.5 C12,4.22385762 11.7761424,4 11.5,4 C11.3705,4 11.2535,4.0505 11.1647499,4.13125 L11.1635,4.13 L6,8.82425 L0.836249998,4.13 L0.834999999,4.13125 C0.743696349,4.04711354 0.624158055,4.0002795 0.5,4 C0.223857627,4 0,4.22385762 0,4.5 C0,4.64675001 0.0642499999,4.77725 0.164749998,4.86875001 L0.163749997,4.87 L5.66375,9.87000002 L5.66475,9.86875 C5.75349999,9.94950003 5.87049999,10 6,10 C6.1295,10 6.2465,9.94950003 6.33525,9.86850002 L6.3365,9.86974997 L11.8365,4.86975 L11.8352499,4.8685 C11.93575,4.77725 12,4.6465 12,4.5 L12,4.5 Z" fill="currentColor" fill-rule="nonzero" transform="translate(6.000000, 7.000000) rotate(-270.000000) translate(-6.000000, -7.000000)"></path><rect transform="translate(7.000000, 7.000000) rotate(-90.000000) translate(-7.000000, -7.000000)" x="0" y="0" width="14" height="14"></rect></g></g></g></svg>