<svg viewBox="0 0 14 14" xmlns="http://www.w3.org/2000/svg"><g stroke="none" stroke-width="1" fill="none" fill-rule="evenodd"><g transform="translate(-575.000000, -314.000000)"><g transform="translate(582.000000, 321.000000) scale(-1, 1) translate(-582.000000, -321.000000) translate(575.000000, 314.000000)"><path d="M13,3.5 C13,3.22385762 12.7761424,3 12.5,3 C12.3705,3 12.2535,3.0505 12.1647499,3.13125 L12.1635,3.13 L7,7.82425 L1.83625,3.13 L1.835,3.13125 C1.74369635,3.04711354 1.62415806,3.0002795 1.5,3 C1.22385763,3 1,3.22385762 1,3.5 C1,3.64675001 1.06425,3.77725 1.16475,3.86875001 L1.16375,3.87 L6.66375,8.87000002 L6.66475,8.86875 C6.75349999,8.94950003 6.87049999,9 7,9 C7.1295,9 7.2465,8.94950003 7.33525,8.86850002 L7.3365,8.86974997 L12.8365,3.86975 L12.8352499,3.8685 C12.93575,3.77725 13,3.6465 13,3.5 L13,3.5 Z" fill="currentColor" fill-rule="nonzero" transform="translate(7.000000, 6.000000) rotate(-180.000000) translate(-7.000000, -6.000000)"></path><rect transform="translate(7.000000, 7.000000) rotate(-90.000000) translate(-7.000000, -7.000000)" x="0" y="0" width="14" height="14"></rect></g></g></g></svg>