<svg viewBox="0 0 14 14" xmlns="http://www.w3.org/2000/svg"><g stroke="none" stroke-width="1" fill="none" fill-rule="evenodd"><g transform="translate(-1582.000000, -315.000000)" fill="currentColor" fill-rule="nonzero"><path d="M1595,319 L1595,317.133333 C1595,317.059695 1594.94404,317 1594.875,317 L1592.53125,317 L1592.53125,317.75 C1592.53125,318.04455 1592.30739,318.283333 1592.03125,318.283333 C1591.75511,318.283333 1591.53125,318.04455 1591.53125,317.75 L1591.53125,317 L1586.46875,317 L1586.46875,317.75 C1586.46875,318.04455 1586.24489,318.283333 1585.96875,318.283333 C1585.69261,318.283333 1585.46875,318.04455 1585.46875,317.75 L1585.46875,317 L1583.125,317 C1583.05596,317 1583,317.059695 1583,317.133333 L1583,319 L1595,319 Z M1595,320 L1583,320 L1583,327.868583 C1583,327.941163 1583.05596,328 1583.125,328 L1594.875,328 C1594.94404,328 1595,327.941163 1595,327.868583 L1595,320 Z M1592.53125,315.938737 L1595.5,315.938737 C1595.77614,315.938737 1596,316.162596 1596,316.438737 L1596,328.5 C1596,328.776141 1595.77614,329 1595.5,329 L1582.5,329 C1582.22386,329 1582,328.776141 1582,328.5 L1582,316.438737 C1582,316.162596 1582.22386,315.938737 1582.5,315.938737 L1585.46875,315.938737 L1585.46875,315.5 C1585.46875,315.223859 1585.69261,315 1585.96875,315 C1586.24489,315 1586.46875,315.223859 1586.46875,315.5 L1586.46875,315.938737 L1591.53125,315.938737 L1591.53125,315.5 C1591.53125,315.223859 1591.75511,315 1592.03125,315 C1592.30739,315 1592.53125,315.223859 1592.53125,315.5 L1592.53125,315.938737 Z M1585.52459,322 L1586.47541,322 C1586.76513,322 1587,322.223859 1587,322.5 C1587,322.776141 1586.76513,323 1586.47541,323 L1585.52459,323 C1585.23487,323 1585,322.776141 1585,322.5 C1585,322.223859 1585.23487,322 1585.52459,322 Z M1585.52459,324 L1586.47541,324 C1586.76513,324 1587,324.223859 1587,324.5 C1587,324.776141 1586.76513,325 1586.47541,325 L1585.52459,325 C1585.23487,325 1585,324.776141 1585,324.5 C1585,324.223859 1585.23487,324 1585.52459,324 Z M1585.52459,326 L1586.47541,326 C1586.76513,326 1587,326.223859 1587,326.5 C1587,326.776141 1586.76513,327 1586.47541,327 L1585.52459,327 C1585.23487,327 1585,326.776141 1585,326.5 C1585,326.223859 1585.23487,326 1585.52459,326 Z M1588.52459,322 L1589.47541,322 C1589.76513,322 1590,322.223859 1590,322.5 C1590,322.776141 1589.76513,323 1589.47541,323 L1588.52459,323 C1588.23487,323 1588,322.776141 1588,322.5 C1588,322.223859 1588.23487,322 1588.52459,322 Z M1588.52459,324 L1589.47541,324 C1589.76513,324 1590,324.223859 1590,324.5 C1590,324.776141 1589.76513,325 1589.47541,325 L1588.52459,325 C1588.23487,325 1588,324.776141 1588,324.5 C1588,324.223859 1588.23487,324 1588.52459,324 Z M1588.52459,326 L1589.47541,326 C1589.76513,326 1590,326.223859 1590,326.5 C1590,326.776141 1589.76513,327 1589.47541,327 L1588.52459,327 C1588.23487,327 1588,326.776141 1588,326.5 C1588,326.223859 1588.23487,326 1588.52459,326 Z M1591.52459,322 L1592.47541,322 C1592.76513,322 1593,322.223859 1593,322.5 C1593,322.776141 1592.76513,323 1592.47541,323 L1591.52459,323 C1591.23487,323 1591,322.776141 1591,322.5 C1591,322.223859 1591.23487,322 1591.52459,322 Z M1591.52459,324 L1592.47541,324 C1592.76513,324 1593,324.223859 1593,324.5 C1593,324.776141 1592.76513,325 1592.47541,325 L1591.52459,325 C1591.23487,325 1591,324.776141 1591,324.5 C1591,324.223859 1591.23487,324 1591.52459,324 Z M1591.52459,326 L1592.47541,326 C1592.76513,326 1593,326.223859 1593,326.5 C1593,326.776141 1592.76513,327 1592.47541,327 L1591.52459,327 C1591.23487,327 1591,326.776141 1591,326.5 C1591,326.223859 1591.23487,326 1591.52459,326 Z" transform="translate(1589.000000, 322.000000) scale(-1, 1) translate(-1589.000000, -322.000000)"></path></g></g></svg>