<svg viewBox="0 0 15 15" xmlns="http://www.w3.org/2000/svg"><g stroke="none" stroke-width="1" fill="none" fill-rule="evenodd"><g transform="translate(-1247.000000, -313.000000)" fill="currentColor" fill-rule="nonzero" stroke="currentColor" stroke-width="0.5"><g transform="translate(1247.402831, 313.597198)"><path d="M13.5602379,14 C13.4481965,14 13.3361552,13.956584 13.2507237,13.8711525 L0.122283143,0.741311386 C-0.043046262,0.569440618 -0.0404026177,0.296860999 0.128229191,0.128229191 C0.296860999,-0.0404026177 0.569440617,-0.043046262 0.741311386,0.122283143 L13.8711525,13.2521243 C14.042047,13.423083 14.042047,13.7001937 13.8711525,13.8711525 C13.7843205,13.956584 13.6722792,14 13.5602379,14 Z"></path><path d="M0.437684967,13.9985995 C0.325643656,13.9985995 0.213602345,13.9551835 0.128170845,13.869752 C-0.0427236151,13.6987932 -0.0427236151,13.4216825 0.128170845,13.2507237 L13.2580119,0.122283143 C13.4298827,-0.043046262 13.7024623,-0.0404026177 13.8710941,0.128229191 C14.039726,0.296860999 14.0423696,0.569440618 13.8770402,0.741311386 L0.745798572,13.869752 C0.660367072,13.9551835 0.548325761,13.9985995 0.437684967,13.9985995 Z"></path></g></g></g></svg>