<svg viewBox="0 0 11 11" xmlns="http://www.w3.org/2000/svg"><g stroke="none" stroke-width="1" fill="none" fill-rule="evenodd"><g transform="translate(-1080.000000, -405.000000)" fill="currentColor" fill-rule="nonzero"><g transform="translate(1064.000000, 389.000000)"><g transform="translate(16.000000, 16.000000)"><path d="M10.5,5.5 C10.5,5.22385762 10.3041246,5 10.0624999,5 C9.94918748,5 9.84681248,5.0505 9.7691562,5.13125 L9.76806247,5.13 L5.25,9.82425 L0.731718748,5.13 L0.730624999,5.13125 C0.650734306,5.04711354 0.546138299,5.0002795 0.437499997,5 C0.195875423,5 0,5.22385762 0,5.5 C0,5.64675001 0.0562187499,5.77725 0.144156248,5.86875001 L0.143281247,5.87 L4.95578125,10.87 L4.95665625,10.86875 C5.03431249,10.9495 5.1366875,11 5.25,11 C5.3633125,11 5.4656875,10.9495 5.54334375,10.8685 L5.5444375,10.86975 L10.3569375,5.86975 L10.3558437,5.8685 C10.4437813,5.77725 10.5,5.6465 10.5,5.5 L10.5,5.5 Z"></path><path d="M10.5,0.5 C10.5,0.223857622 10.3041246,0 10.0624999,0 C9.94918748,0 9.84681248,0.0504999975 9.7691562,0.13125 L9.76806247,0.129999998 L5.25,4.82425 L0.731718748,0.129999998 L0.730624999,0.13125 C0.650734306,0.0471135375 0.546138299,0.0002795025 0.437499997,0 C0.195875423,0 0,0.223857622 0,0.5 C0,0.646750005 0.0562187499,0.777250005 0.144156248,0.868750005 L0.143281247,0.87 L4.95578125,5.87000003 L4.95665625,5.86875 C5.03431249,5.94950003 5.1366875,6 5.25,6 C5.3633125,6 5.4656875,5.94950003 5.54334375,5.86850002 L5.5444375,5.86974997 L10.3569375,0.869749995 L10.3558437,0.8685 C10.4437813,0.777250005 10.5,0.6465 10.5,0.5 L10.5,0.5 Z"></path></g></g></g></g></svg>