<svg viewBox="0 0 18 20" xmlns="http://www.w3.org/2000/svg"><g stroke="none" stroke-width="1" fill="none" fill-rule="evenodd"><g transform="translate(-1451.000000, -400.000000)" fill="currentColor" fill-rule="nonzero"><path d="M1460.23118,412.489869 L1465.76716,406.738789 C1466.04919,406.445803 1466.50645,406.445803 1466.78848,406.738789 C1467.07051,407.031775 1467.07051,407.506799 1466.78848,407.799785 L1460.09191,414.756542 C1459.76814,415.081153 1459.25509,415.081153 1458.93132,414.756542 L1452.21154,407.811841 C1452.0291,407.622313 1451.95785,407.346069 1452.02462,407.087168 C1452.0914,406.828267 1452.28606,406.626042 1452.53528,406.55667 C1452.7845,406.487297 1453.05041,406.561317 1453.23285,406.750845 L1458.76884,412.501925 L1458.76884,400.855084 C1458.73322,400.563109 1458.86316,400.276034 1459.10234,400.1183 C1459.34152,399.960567 1459.64689,399.960567 1459.88607,400.1183 C1460.12525,400.276034 1460.25519,400.563109 1460.21957,400.855084 L1460.23118,412.489869 Z M1451.6565,420 C1451.28129,419.968082 1451,419.753849 1451,419.5 C1451,419.246151 1451.28129,419.031918 1451.6565,419 L1468.3435,419 C1468.71871,419.031918 1469,419.246151 1469,419.5 C1469,419.753849 1468.71871,419.968082 1468.3435,420 L1451.6565,420 Z"></path></g></g></svg>