<svg viewBox="0 0 19 20" xmlns="http://www.w3.org/2000/svg"><g stroke="none" stroke-width="1" fill="none" fill-rule="evenodd"><g transform="translate(-1325.000000, -400.000000)" fill="currentColor" fill-rule="nonzero"><path d="M1326.82899,402.727539 L1326.82899,405.810585 C1326.83099,406.364393 1326.6868,406.823199 1326.1334,406.825099 L1326.1288,406.825099 C1325.5722,406.824499 1325.33,406.365293 1325.32848,405.808185 L1325.32848,401.809126 C1325.32705,401.547813 1325.43018,401.296775 1325.6149,401.11194 C1325.79962,400.927105 1326.05059,400.823826 1326.3119,400.825099 L1330.32059,400.825099 C1330.87698,400.825811 1331.32778,401.077115 1331.32848,401.633923 C1331.32918,402.187831 1330.88108,402.326933 1330.32769,402.327633 L1327.22899,402.327633 C1327.00808,402.327633 1326.82899,402.506722 1326.82899,402.727639 L1326.82899,402.727539 Z M1341.42797,402.327575 L1338.32928,402.327575 C1337.77588,402.326975 1337.32788,402.187877 1337.32848,401.633986 C1337.32918,401.077096 1337.77998,400.8259 1338.33638,400.825099 L1342.34897,400.825099 C1342.60961,400.824856 1342.85957,400.928592 1343.04344,401.113308 C1343.22732,401.298023 1343.32991,401.548456 1343.32848,401.809083 L1343.32848,405.808116 C1343.32697,406.365107 1343.08477,406.824399 1342.52827,406.825099 L1342.52357,406.825099 C1341.97017,406.823099 1341.82607,406.364307 1341.82797,405.810516 L1341.82797,402.727568 C1341.82797,402.506658 1341.64889,402.327575 1341.42797,402.327575 Z M1327.22899,418.322599 L1330.32769,418.322599 C1330.88108,418.323199 1331.32918,418.462399 1331.32848,419.016199 C1331.32778,419.573099 1330.87698,419.824299 1330.32059,419.825099 L1326.308,419.825099 C1326.04736,419.825343 1325.7974,419.721605 1325.61352,419.536886 C1325.42965,419.352168 1325.32706,419.10173 1325.32848,418.841099 L1325.32848,414.842099 C1325.33,414.284999 1325.5722,413.825699 1326.1288,413.825099 L1326.1334,413.825099 C1326.6868,413.827099 1326.83089,414.285799 1326.82899,414.839599 L1326.82899,417.922599 C1326.82899,418.143513 1327.00808,418.322599 1327.22899,418.322599 L1327.22899,418.322599 Z M1341.82797,417.922591 L1341.82797,414.839697 C1341.82597,414.285799 1341.97017,413.827099 1342.52357,413.825099 L1342.52827,413.825099 C1343.08477,413.825799 1343.32697,414.285099 1343.32848,414.842097 L1343.32848,418.84109 C1343.32991,419.102398 1343.22679,419.353431 1343.04207,419.538264 C1342.85735,419.723096 1342.60638,419.826373 1342.34507,419.825099 L1338.33638,419.825099 C1337.77998,419.824388 1337.32918,419.573088 1337.32848,419.016289 C1337.32788,418.46239 1337.77588,418.323291 1338.32928,418.322591 L1341.42797,418.322591 C1341.64889,418.322591 1341.82797,418.143505 1341.82797,417.922591 L1341.82797,417.922591 Z"></path></g></g></svg>