<svg viewBox="0 0 14 14" xmlns="http://www.w3.org/2000/svg"><path fill="currentColor" d="M7,4.02298851 C6.68894307,4.02298851 6.43678161,3.77082704 6.43678161,3.45977011 L6.43678161,0.563218391 C6.43678161,0.252161463 6.68894307,0 7,0 C7.31105693,0 7.56321839,0.252161463 7.56321839,0.563218391 L7.56321839,3.45977011 C7.56321839,3.77082704 7.31105693,4.02298851 7,4.02298851 L7,4.02298851 Z M7,14 C6.8506252,14 6.70736839,13.9406611 6.60174446,13.8350372 C6.49612052,13.7294132 6.43678161,13.5861564 6.43678161,13.4367816 L6.43678161,10.5402299 C6.43678161,10.229173 6.68894307,9.97701149 7,9.97701149 C7.31105693,9.97701149 7.56321839,10.229173 7.56321839,10.5402299 L7.56321839,13.4367816 C7.56321839,13.7478385 7.31105693,14 7,14 L7,14 Z M9.10506897,4.89493103 C8.99943749,4.78931918 8.9400927,4.64606699 8.9400927,4.4966954 C8.9400927,4.34732381 8.99943749,4.20407162 9.10506897,4.09845977 L11.1532529,2.05027586 C11.2588647,1.94464439 11.4021169,1.88529959 11.5514885,1.88529959 C11.7008601,1.88529959 11.8441123,1.94464439 11.9497241,2.05027586 C12.0553556,2.15588772 12.1147004,2.2991399 12.1147004,2.44851149 C12.1147004,2.59788308 12.0553556,2.74113527 11.9497241,2.84674713 L9.90154023,4.89493103 C9.79592838,5.00056251 9.65267619,5.0599073 9.5033046,5.0599073 C9.35393301,5.0599073 9.21068082,5.00056251 9.10506897,4.89493103 L9.10506897,4.89493103 Z M2.05027586,11.9497241 C1.94464439,11.8441123 1.88529959,11.7008601 1.88529959,11.5514885 C1.88529959,11.4021169 1.94464439,11.2588647 2.05027586,11.1532529 L4.09845977,9.10506897 C4.20407162,8.99943749 4.34732381,8.9400927 4.4966954,8.9400927 C4.64606699,8.9400927 4.78931918,8.99943749 4.89493103,9.10506897 C5.00056251,9.21068082 5.0599073,9.35393301 5.0599073,9.5033046 C5.0599073,9.65267619 5.00056251,9.79592838 4.89493103,9.90154023 L2.84674713,11.9497241 C2.74113527,12.0553556 2.59788308,12.1147004 2.44851149,12.1147004 C2.2991399,12.1147004 2.15588772,12.0553556 2.05027586,11.9497241 L2.05027586,11.9497241 Z M9.97701149,7 C9.97701149,6.68894307 10.229173,6.43678161 10.5402299,6.43678161 L13.4367816,6.43678161 C13.7478385,6.43678161 14,6.68894307 14,7 C14,7.31105693 13.7478385,7.56321839 13.4367816,7.56321839 L10.5402299,7.56321839 C10.229173,7.56321839 9.97701149,7.31105693 9.97701149,7 L9.97701149,7 Z M0,7 C0,6.68894307 0.252161463,6.43678161 0.563218391,6.43678161 L3.45977011,6.43678161 C3.77082704,6.43678161 4.02298851,6.68894307 4.02298851,7 C4.02298851,7.31105693 3.77082704,7.56321839 3.45977011,7.56321839 L0.563218391,7.56321839 C0.252161463,7.56321839 0,7.31105693 0,7 Z M9.10506897,9.10506897 C9.21068082,8.99943749 9.35393301,8.9400927 9.5033046,8.9400927 C9.65267619,8.9400927 9.79592838,8.99943749 9.90154023,9.10506897 L11.9497241,11.1532529 C12.0553556,11.2588647 12.1147004,11.4021169 12.1147004,11.5514885 C12.1147004,11.7008601 12.0553556,11.8441123 11.9497241,11.9497241 C11.8441123,12.0553556 11.7008601,12.1147004 11.5514885,12.1147004 C11.4021169,12.1147004 11.2588647,12.0553556 11.1532529,11.9497241 L9.10506897,9.90154023 C8.99943749,9.79592838 8.9400927,9.65267619 8.9400927,9.5033046 C8.9400927,9.35393301 8.99943749,9.21068082 9.10506897,9.10506897 L9.10506897,9.10506897 Z M2.05027586,2.05027586 C2.15588772,1.94464439 2.2991399,1.88529959 2.44851149,1.88529959 C2.59788308,1.88529959 2.74113527,1.94464439 2.84674713,2.05027586 L4.89493103,4.09845977 C5.00056251,4.20407162 5.0599073,4.34732381 5.0599073,4.4966954 C5.0599073,4.64606699 5.00056251,4.78931918 4.89493103,4.89493103 C4.78931918,5.00056251 4.64606699,5.0599073 4.4966954,5.0599073 C4.34732381,5.0599073 4.20407162,5.00056251 4.09845977,4.89493103 L2.05027586,2.84674713 C1.94464439,2.74113527 1.88529959,2.59788308 1.88529959,2.44851149 C1.88529959,2.2991399 1.94464439,2.15588772 2.05027586,2.05027586 Z"></path></svg>