<svg viewBox="0 0 16 16" xmlns="http://www.w3.org/2000/svg"><g stroke="none" stroke-width="1" fill="none" fill-rule="evenodd"><g transform="translate(-1750.000000, -313.000000)"><g transform="translate(1750.000000, 313.000000)"><path d="M8.70000923,2.22431474 L5.00000447,4.46219356 L5.00000447,11.582698 L8.70000923,13.8205512 C9.3999981,14.2274479 10.0000045,13.9222874 10.0000045,13.1084941 L10.0000045,2.93637186 C10.0000045,2.12260412 9.40000124,1.71571707 8.70000923,2.22431474 Z M1,5.98801524 L1,10.0568667 C1,10.8706408 1.69999828,11.582698 2.5,11.582698 L4,11.582698 L4,4.46219354 L2.5,4.46219354 C1.69999827,4.46219354 1,5.17424111 1,5.98801524 Z M14.5000091,7.51407951 L12.5000091,7.51407951 C12.1999912,7.51407951 12.0000091,7.75342972 12.0000091,8.11246254 C12.0000091,8.47147662 12.1999912,8.71084558 12.5000091,8.71084558 L14.5000091,8.71084558 C14.8000179,8.71084558 15.0000091,8.47147662 15.0000091,8.11246254 C15.0000091,7.75342972 14.8000179,7.51407951 14.5000091,7.51407951 Z M14.2000123,12.7016326 L12.5000222,11.6844022 C12.3000089,11.582698 12.0000122,11.582698 11.8000146,11.8878425 C11.7,12.0912987 11.7,12.3964434 12.0000122,12.5998996 L13.7000211,13.6171459 C13.9000187,13.7188502 14.2000123,13.7188502 14.40001,13.4136897 C14.5000056,13.2102334 14.40001,12.8033527 14.2000123,12.7016326 Z M12.4000046,4.36046382 L14.1000134,3.34325573 C14.2999954,3.24153555 14.40001,2.93636868 14.2999954,2.63120816 C14.2000123,2.42776781 13.9000156,2.32604128 13.7000211,2.42776781 L12.0000122,3.44498227 C11.8000146,3.54669289 11.7,3.85186295 11.8000146,4.15702985 C11.8999977,4.36046382 12.1999912,4.46219354 12.4000046,4.36046382 Z" fill="currentColor" fill-rule="nonzero"></path><rect x="0" y="0" width="16" height="16"></rect></g></g></g></svg>