<svg viewBox="0 0 20 20" xmlns="http://www.w3.org/2000/svg"><path fill="currentColor" d="M19.7836458,18.7808474 L16.5703856,15.6823502 C18.2232789,14.0149719 19.2455117,11.762298 19.2455117,9.27907483 C19.2455117,4.16273572 14.9285954,0 9.62275584,0 C4.31691631,0 0,4.16273572 0,9.27907483 C0,14.3954139 4.31691631,18.5581497 9.62275584,18.5581497 C11.8204452,18.5581497 13.8427044,17.8358094 15.4645089,16.6352398 L18.7362458,19.7901253 C18.8747655,19.9244643 19.0631163,20 19.2595757,20 C19.4560351,20 19.6443859,19.9244643 19.7829056,19.7901253 C20.0720755,19.5115934 20.0724069,19.0597735 19.7836458,18.7808474 Z M1.48042398,9.27907483 C1.48042398,4.95002953 5.13337014,1.42754997 9.62275584,1.42754997 C14.1121415,1.42754997 17.7650877,4.95002953 17.7650877,9.27907483 C17.7650877,13.6081201 14.1121415,17.1305997 9.62275584,17.1305997 C5.13337014,17.1305997 1.48042398,13.6081201 1.48042398,9.27907483 Z" fill-rule="nonzero"></path><rect fill="currentColor" x="5.82111717" y="8.71310941" width="8" height="2" rx="1"></rect></svg>