<svg viewBox="0 0 16 16" xmlns="http://www.w3.org/2000/svg"><g stroke="none" stroke-width="1" fill="none" fill-rule="evenodd"><g transform="translate(-1792.000000, -313.000000)" fill="currentColor" fill-rule="nonzero"><path d="M1792.27059,319.005084 C1793.39971,314.690351 1797.74954,312.121064 1801.96696,313.276843 C1805.98842,314.379744 1808.83721,318.342099 1807.77208,322.410212 C1807.44769,323.649086 1806.65629,324.705329 1805.57116,325.34654 C1804.4908,325.987217 1803.19648,326.161397 1801.98518,325.829115 L1800.62188,325.455853 C1800.502,325.424054 1800.37437,325.44159 1800.26749,325.504543 C1800.16062,325.567497 1800.08341,325.670625 1800.0531,325.7909 C1800.02333,325.899768 1800.03533,326.015746 1800.08643,326.115727 L1800.08954,326.123281 L1800.09576,326.136167 L1800.09976,326.143721 C1800.20196,326.361458 1800.40237,326.884024 1800.23307,327.531901 C1800.10379,328.035154 1799.78061,328.466799 1799.33413,328.732561 C1798.89263,328.994489 1798.36352,329.0654 1797.86863,328.928968 C1793.65166,327.771855 1791.14103,323.321149 1792.27059,319.005084 Z M1803.08853,320.89539 C1803.0392,321.076688 1803.06497,321.270429 1803.16051,321.433065 C1803.25649,321.5957 1803.4138,321.714344 1803.59865,321.763224 L1803.97813,321.863205 C1804.22697,321.928526 1804.4927,321.858761 1804.67489,321.679684 C1804.85708,321.500607 1804.92817,321.239768 1804.86152,320.99537 C1804.79312,320.749474 1804.5989,320.55864 1804.35184,320.494577 L1803.97236,320.394596 C1803.78764,320.345933 1803.59122,320.371282 1803.42491,320.465249 C1803.25916,320.559009 1803.13829,320.714091 1803.08853,320.89539 L1803.08853,320.89539 Z M1801.64613,317.353843 C1801.59637,317.535142 1801.62258,317.728438 1801.71812,317.891518 C1801.81366,318.054154 1801.9714,318.172798 1802.15626,318.221233 L1802.5353,318.321214 C1802.92011,318.422528 1803.31604,318.198126 1803.41913,317.820421 C1803.4678,317.637641 1803.44124,317.442984 1803.34539,317.279921 C1803.24954,317.116858 1803.09238,316.998971 1802.909,316.952586 L1802.52952,316.852605 C1802.34474,316.804077 1802.14832,316.829586 1801.98207,316.923703 C1801.81632,317.017019 1801.69546,317.1721 1801.64613,317.353399 L1801.64613,317.353843 Z M1798.0206,316.19051 C1797.97084,316.372697 1797.99661,316.565994 1798.09215,316.728629 C1798.18813,316.891709 1798.34543,317.010353 1798.53073,317.059233 L1798.91021,317.158325 C1799.29503,317.259639 1799.69051,317.035237 1799.7936,316.657532 C1799.84228,316.474813 1799.81578,316.28021 1799.72002,316.117158 C1799.62426,315.954107 1799.46721,315.836179 1799.28392,315.789697 L1798.90443,315.689716 C1798.71966,315.641187 1798.52324,315.666697 1798.35698,315.760814 C1798.19124,315.854129 1798.07037,316.009211 1798.0206,316.19051 L1798.0206,316.19051 Z M1795.13538,319.024191 C1795.08561,319.205934 1795.11138,319.399231 1795.20692,319.561866 C1795.30246,319.724946 1795.4602,319.844035 1795.6455,319.89247 L1796.02454,319.992006 C1796.27338,320.057327 1796.53911,319.987563 1796.72174,319.808486 C1796.90393,319.629409 1796.97503,319.36857 1796.90837,319.124172 C1796.83989,318.878162 1796.64548,318.687304 1796.39825,318.623379 L1796.01876,318.523398 C1795.83404,318.474735 1795.63762,318.500084 1795.47131,318.594051 C1795.30557,318.687811 1795.1847,318.842892 1795.13538,319.024191 L1795.13538,319.024191 Z"></path></g></g></svg>