<svg viewBox="0 0 16 16" xmlns="http://www.w3.org/2000/svg"><path fill="currentColor" d="M10.7011977,11.6280166 C9.57144184,12.552526 8.12729643,13.1072 6.5536,13.1072 C2.93414666,13.1072 0,10.1730533 0,6.5536 C0,2.93414666 2.93414666,0 6.5536,0 C10.1730533,0 13.1072,2.93414666 13.1072,6.5536 C13.1072,8.12729643 12.552526,9.57144184 11.6280166,10.7011977 L15.7286789,14.8018599 C15.9845914,15.0577724 15.9863584,15.4709216 15.72864,15.72864 C15.472706,15.984574 15.0588152,15.9856342 14.8018599,15.7286789 L10.7011977,11.6280166 Z M6.5536,11.79648 C9.44916267,11.79648 11.79648,9.44916267 11.79648,6.5536 C11.79648,3.65803733 9.44916267,1.31072 6.5536,1.31072 C3.65803733,1.31072 1.31072,3.65803733 1.31072,6.5536 C1.31072,9.44916267 3.65803733,11.79648 6.5536,11.79648 Z"></path></svg>