<svg viewBox="0 0 16 16" xmlns="http://www.w3.org/2000/svg"><path fill="currentColor" d="M7.71467185,15.4346347 C3.46350487,15.4346347 0.00552099607,12.1927748 0.00552099607,8.20730573 C0.00552099607,5.53652388 1.56612255,3.09348312 4.08001611,1.83228057 C4.48120848,1.63041915 4.97993846,1.77189468 5.19341698,2.14801254 C5.40873583,2.5241304 5.2578286,2.99168975 4.85663621,3.19182586 C2.87827929,4.18387984 1.65077782,6.1058766 1.65077782,8.20730573 C1.65077782,11.340471 4.37078857,13.8904811 7.71283152,13.8904811 C11.0548745,13.8904811 13.7748852,11.340471 13.7748852,8.20730573 C13.7748852,6.09207411 12.5345014,4.16490142 10.5359009,3.17629806 C10.1347085,2.97788726 9.98012058,2.5103279 10.1917588,2.13421005 C10.4033969,1.75809219 10.9021269,1.61316604 11.3033194,1.81157684 C13.8448178,3.06760345 15.4219824,5.51754546 15.4219824,8.20730573 C15.4219824,12.1927748 11.9639985,15.4346347 7.71467185,15.4346347 Z"></path><path fill="currentColor" d="M7.71467185,8.61620451 C7.26010985,8.61620451 6.89204343,8.27114225 6.89204343,7.84499037 L6.89204343,0.774664762 C6.89204343,0.348512878 7.26010985,0.00345062255 7.71467185,0.00345062255 C8.16923387,0.00345062255 8.53730027,0.348512878 8.53730027,0.774664762 L8.53730027,7.84499037 C8.53730027,8.27114225 8.16923387,8.61620451 7.71467185,8.61620451 L7.71467185,8.61620451 Z"></path></svg>