<svg viewBox="0 0 17 25" xmlns="http://www.w3.org/2000/svg"><g stroke="none" stroke-width="1" fill="none" fill-rule="evenodd"><g transform="translate(-1411.000000, -397.000000)" fill="currentColor" fill-rule="nonzero"><path d="M1417.95118,401.54896 L1414.46173,399.424952 C1414.15831,399.121522 1414.00659,398.666378 1414.15831,398.362948 C1414.46173,398.059518 1414.91688,397.907804 1415.22031,398.059518 L1420.37861,401.24553 C1420.68204,401.397245 1420.83376,401.85239 1420.68204,402.307535 L1417.49603,407.46584 C1417.34432,407.769269 1416.88917,407.920984 1416.43403,407.769269 C1416.1306,407.617555 1415.97888,407.16241 1416.1306,406.707265 L1418.40632,403.066109 C1414.00659,403.217824 1410.36543,406.85898 1410.36543,411.410426 C1410.36543,415.961872 1414.15831,419.754743 1418.70975,419.754743 C1421.74405,419.754743 1424.47492,418.08588 1425.99206,415.506727 C1426.14378,415.203297 1426.59892,415.051583 1427.05407,415.203297 C1427.3575,415.355012 1427.50921,415.810157 1427.3575,416.265301 C1425.53692,419.299599 1422.35091,421.271892 1418.86147,421.271892 C1413.39973,421.271892 1409,416.872161 1409,411.410426 C1409,406.252121 1412.94459,402.004105 1417.95118,401.54896 L1417.95118,401.54896 Z" transform="translate(1418.208508, 409.635946) scale(-1, 1) rotate(19.000000) translate(-1418.208508, -409.635946)"></path></g></g></svg>