<svg viewBox="0 0 17 25" xmlns="http://www.w3.org/2000/svg"><g stroke="none" stroke-width="1" fill="none" fill-rule="evenodd"><g transform="translate(-1366.000000, -397.000000)" fill="currentColor" fill-rule="nonzero"><path d="M1372.46173,399.424952 C1372.15831,399.121522 1372.00659,398.666378 1372.15831,398.362948 C1372.46173,398.059518 1372.91688,397.907804 1373.22031,398.059518 L1378.37861,401.24553 C1378.68204,401.397245 1378.83376,401.85239 1378.68204,402.307535 L1375.49603,407.46584 C1375.34432,407.769269 1374.88917,407.920984 1374.43403,407.769269 C1374.1306,407.617555 1373.97888,407.16241 1374.1306,406.707265 L1376.40632,403.066109 C1372.00659,403.217824 1368.36543,406.85898 1368.36543,411.410426 C1368.36543,415.961872 1372.15831,419.754743 1376.70975,419.754743 C1379.74405,419.754743 1382.47492,418.08588 1383.99206,415.506727 C1384.14378,415.203297 1384.59892,415.051583 1385.05407,415.203297 C1385.3575,415.355012 1385.50921,415.810157 1385.3575,416.265301 C1383.53692,419.299599 1380.35091,421.271892 1376.86147,421.271892 C1371.39973,421.271892 1367,416.872161 1367,411.410426 C1367,406.252121 1370.94459,402.004105 1375.95118,401.54896 L1372.46173,399.424952 Z" transform="translate(1376.208508, 409.635946) rotate(19.000000) translate(-1376.208508, -409.635946)"></path></g></g></svg>