<svg viewBox="0 0 16 16" xmlns="http://www.w3.org/2000/svg"><g stroke="none" stroke-width="1" fill="none" fill-rule="evenodd"><g transform="translate(-1834.000000, -313.000000)"><g transform="translate(1834.000000, 313.000000)"><g transform="translate(1.000000, 1.000000)" fill="currentColor" fill-rule="nonzero"><path d="M8.59270588,14 L5.40729412,14 C2.38603922,14 0,14 0,12.6352414 L0,12.3624828 C0,9.80434483 2.42611765,7.72413793 5.40729412,7.72413793 L8.59243137,7.72413793 C11.5736078,7.72413793 14,9.80482759 14,12.3622414 L14,12.6352414 C13.999451,14 11.4931765,14 8.59270588,14 Z M6.7254902,7.48275862 C4.37870588,7.48275862 2.47058824,5.8042069 2.47058824,3.74113793 C2.47058824,1.67806897 4.37898039,0 6.7254902,0 C9.072,0 10.9803922,1.67806897 10.9803922,3.74113793 C10.9803922,5.8042069 9.07172549,7.48275862 6.7254902,7.48275862 Z"></path></g><rect x="0" y="0" width="16" height="16"></rect></g></g></g></svg>